<?xml version="1.0" standalone="no"?><!DOCTYPE svg PUBLIC "-//W3C//DTD SVG 1.1//EN" "http://www.w3.org/Graphics/SVG/1.1/DTD/svg11.dtd"><svg t="1558948409864" class="icon" style="" viewBox="0 0 1024 1024" version="1.1" xmlns="http://www.w3.org/2000/svg" p-id="1989" xmlns:xlink="http://www.w3.org/1999/xlink" width="32" height="32"><defs><style type="text/css"></style></defs><path d="M511.965867 3.413333C290.044587 3.413333 109.550933 185.77408 109.550933 409.985707c0 224.21504 315.132587 567.99232 315.132587 567.99232 47.342933 56.808107 127.225173 56.808107 174.63296 0 0 0 315.132587-343.790933 315.132587-568.005974C914.45248 185.760427 733.893973 3.413333 511.965867 3.413333z m0 581.451094c-102.079147 0-186.4192-83.729067-186.4192-188.34432 0-104.608427 82.855253-188.327253 186.4192-188.327254 103.55712 0 186.368 85.200213 186.368 188.340907 0 103.144107-82.797227 188.34432-186.368 188.34432v-0.013653z" p-id="1990"></path></svg>