<?xml version="1.0" standalone="no"?><!DOCTYPE svg PUBLIC "-//W3C//DTD SVG 1.1//EN" "http://www.w3.org/Graphics/SVG/1.1/DTD/svg11.dtd"><svg t="1589123477487" class="icon" viewBox="0 0 1024 1024" version="1.1" xmlns="http://www.w3.org/2000/svg" p-id="2584" xmlns:xlink="http://www.w3.org/1999/xlink" width="200" height="200"><defs><style type="text/css"></style></defs><path d="M768 810.666667m-85.333333 0a85.333333 85.333333 0 1 0 170.666666 0 85.333333 85.333333 0 1 0-170.666666 0Z" p-id="2585"></path><path d="M256 810.666667m-85.333333 0a85.333333 85.333333 0 1 0 170.666666 0 85.333333 85.333333 0 1 0-170.666666 0Z" p-id="2586"></path><path d="M787.2 256H704V192c0-36.266667-27.733333-64-64-64H64C27.733333 128 0 155.733333 0 192v554.666667c0 36.266667 27.733333 64 64 64h64c0-70.4 57.6-128 128-128s128 57.6 128 128h256c0-70.4 57.6-128 128-128s128 57.6 128 128h64c36.266667 0 64-27.733333 64-64V452.266667c0-19.2-8.533333-38.4-25.6-51.2l-172.8-132.266667c-10.666667-8.533333-25.6-12.8-38.4-12.8zM981.333333 554.666667H704V298.666667h64c14.933333 0 27.733333 4.266667 38.4 12.8l149.333333 115.2c14.933333 12.8 25.6 29.866667 25.6 51.2V554.666667z" p-id="2587"></path></svg>
