<?xml version="1.0" standalone="no"?><!DOCTYPE svg PUBLIC "-//W3C//DTD SVG 1.1//EN" "http://www.w3.org/Graphics/SVG/1.1/DTD/svg11.dtd"><svg t="1559553388608" class="icon" style="" viewBox="0 0 1024 1024" version="1.1" xmlns="http://www.w3.org/2000/svg" p-id="2040" xmlns:xlink="http://www.w3.org/1999/xlink" width="32" height="32"><defs><style type="text/css"></style></defs><path d="M969.728 877.568L915.968 361.984c-7.68-44.544-46.592-76.8-91.648-76.8h-136.192V221.184c0-98.304-79.872-178.688-178.688-178.688-97.792 0-178.176 80.384-178.176 178.688v64H195.584c-45.568 0-83.968 32.256-92.16 79.36L50.176 875.008c-4.608 27.136 2.56 54.784 20.48 76.288 17.92 20.992 43.52 33.28 71.168 33.28h735.744c27.648 0 53.76-12.288 71.168-33.28 17.92-21.504 25.6-49.152 20.992-73.728zM399.872 221.184c0-60.928 49.664-110.08 110.08-110.08 60.928 0 110.08 49.664 110.08 110.08v64h-220.16V221.184z m497.152 686.08c-2.56 3.584-9.216 8.704-18.944 8.704H141.824c-10.24 0-16.384-5.632-18.944-8.704-2.56-3.584-7.168-10.24-5.12-22.528L171.008 373.76c2.048-11.776 12.288-20.48 24.576-20.48H824.32c12.288 0 22.528 8.704 24.064 18.432l53.76 515.584c2.048 9.728-2.56 16.384-5.12 19.968zM413.696 476.672c0 26.624-21.504 48.128-48.128 48.128S317.44 503.296 317.44 476.672s21.504-48.128 48.128-48.128 48.128 21.504 48.128 48.128z m288.768 0c0 26.624-21.504 48.128-48.128 48.128s-48.128-21.504-48.128-48.128 21.504-48.128 48.128-48.128 48.128 21.504 48.128 48.128z" p-id="2041"></path></svg>