<?xml version="1.0" standalone="no"?><!DOCTYPE svg PUBLIC "-//W3C//DTD SVG 1.1//EN" "http://www.w3.org/Graphics/SVG/1.1/DTD/svg11.dtd"><svg t="1567326579565" class="icon" viewBox="0 0 1077 1024" version="1.1" xmlns="http://www.w3.org/2000/svg" p-id="3243" xmlns:xlink="http://www.w3.org/1999/xlink" width="210.3515625" height="200"><defs><style type="text/css"></style></defs><path d="M648.002 1023.002c10.618-1.967 21.235-3.961 31.367-6.44 6.575-1.483 12.638-5.956 16.195-11.4 3.53-5.955 4.555-12.907 3.046-19.347-3.046-11.426-13.15-19.349-25.277-19.349-2.02 0-4.042 0.512-6.063 0.997-9.594 2.48-18.702 4.474-28.322 5.956-14.147 2.479-23.256 15.872-20.75 29.777 1.025 6.44 5.067 12.395 10.618 16.384 4.5 2.937 9.566 4.419 14.632 4.419 1.51-0.485 3.045-0.485 4.554-0.997z m379.338-635.526c2.534 0 5.579-0.485 8.085-1.482 13.662-4.473 21.234-18.863 16.68-32.256-3.53-9.917-7.087-19.833-11.13-29.75-4.041-9.916-13.661-15.872-24.279-15.872-3.53 0-6.575 0.512-9.62 1.994-6.575 2.48-11.641 7.438-14.147 13.393s-3.045 13.393 0 19.348c3.53 8.92 7.087 17.866 10.105 26.786 1.509 4.958 5.066 9.432 9.593 12.908 4.07 3.45 9.135 4.93 14.713 4.93z m-224.579 578.48c4.554 0 9.108-0.999 13.15-3.478 9.11-5.443 18.702-10.914 27.298-16.384 5.578-3.96 9.593-9.43 11.13-16.357 1.508-6.44 0-13.393-3.53-19.348-5.067-6.953-13.15-11.426-21.747-11.426-5.066 0-10.106 1.482-14.148 4.473-8.084 5.444-16.195 10.402-24.79 14.875-12.64 6.953-16.68 22.825-9.594 34.736 2.02 3.476 4.554 5.955 7.6 7.95 4.014 2.963 9.053 4.957 14.631 4.957z m234.685-418.225c4.042 2.964 9.108 4.473 14.174 4.473h0.512c14.174 0 25.816-11.425 25.816-24.818 0-10.429 0-20.83-0.512-31.258-0.512-13.878-12.127-24.307-25.789-24.307h-1.024c-14.147 0.486-25.277 12.396-24.765 26.3 0.512 9.433 0.512 18.863 0 28.295 0.458 8.407 4.5 16.357 11.588 21.315z m-69.309 242.095c-4.527-3.476-10.105-4.958-15.683-4.958-8.084 0-15.684 3.961-20.75 10.43-5.578 7.436-11.64 14.874-18.216 22.34-9.08 10.912-8.084 26.784 3.045 35.73 0.512 0.485 1.024 0.997 2.02 1.482 4.555 2.965 9.594 4.474 15.172 4.474 7.6 0 14.66-3.477 19.726-8.92 7.087-7.95 13.662-16.384 20.21-24.818 8.138-10.968 5.605-27.325-5.524-35.76z m69.309-152.306c-2.533-0.997-5.066-0.997-7.572-0.997-11.642 0-21.235 6.952-24.792 17.866-3.018 8.92-6.063 17.866-9.593 26.786-4.042 10.913-0.512 23.31 9.108 29.776 1.509 0.997 3.53 1.995 5.578 2.965a28.9 28.9 0 0 0 9.108 1.482c10.617 0 20.21-6.44 24.28-16.357a994.397 994.397 0 0 0 10.617-29.777c4.5-12.88-3.099-27.27-16.734-31.744zM931.219 183.565c2.533 0 5.066-1.482 6.09-2.964 0.997-1.482 1.51-3.961 0.512-6.44L899.88 40.205l-39.963 56.536-14.659-9.432C758.271 30.262 657.597 0 553.417 0c-30.343 0-60.684 2.48-91.027 7.95-13.15 2.479-26.813 4.958-39.963 8.434l-1.51 0.485c-116.843 29.265-216.98 95.259-289.306 190.006l-1.024 1.482c0 0.512-0.512 0.512-0.512 0.997-2.506 3.476-5.04 6.467-7.06 9.944-4.042 5.443-7.6 10.886-11.13 16.357l-1.024 1.994C51.2 327.923 22.878 432.128 27.432 539.297v1.482c0.512 9.916 1.51 20.345 2.533 30.774l0.512 1.967c0.998 10.914 2.534 21.342 4.555 31.26 18.7 106.171 69.793 202.4 147.16 277.341l0.51 0.512c20.75 19.833 43.494 38.697 67.26 55.054 63.22 43.654 134.038 72.946 209.41 85.827 1.509 0.485 3.018 0.485 4.527 0.485 12.638 0 23.256-8.947 25.277-20.83 0.997-6.953-0.512-13.393-4.043-18.863-4.042-5.47-10.105-9.432-16.68-10.43-40.475-6.952-79.414-19.347-116.332-36.216l-0.512-0.512c-0.512 0-0.512-0.485-0.997-0.485-8.596-3.962-17.192-7.923-24.791-12.396h-0.512l-2.533-1.482c-14.66-7.95-28.834-16.87-42.47-26.3-103.18-71.438-171.978-178.123-193.724-300.653s6.602-245.57 79.414-346.784c31.879-44.652 71.303-82.864 116.332-113.61l1.509-0.998c79.926-54.083 172.975-82.35 270.092-82.35 93.561 0 184.105 26.785 261.982 77.904l15.172 9.917-39.963 57.047 140.1-13.393zM829.062 699.526c6.575 0 12.638-3.476 15.683-9.432 4.554-8.434 1.024-18.863-7.572-23.31l-293.376-148.83V203.911c0-9.432-8.084-17.354-17.705-17.354s-17.703 7.922-17.703 17.354v334.874L820.95 697.56c2.56 1.482 5.066 1.967 8.11 1.967z" p-id="3244"></path></svg>