<?xml version="1.0" standalone="no"?><!DOCTYPE svg PUBLIC "-//W3C//DTD SVG 1.1//EN" "http://www.w3.org/Graphics/SVG/1.1/DTD/svg11.dtd"><svg t="1559553416873" class="icon" style="" viewBox="0 0 1024 1024" version="1.1" xmlns="http://www.w3.org/2000/svg" p-id="2833" xmlns:xlink="http://www.w3.org/1999/xlink" width="32" height="32"><defs><style type="text/css"></style></defs><path d="M287.232 544.49066666H737.28v50.17600001h-450.048zM287.232 691.94666666H737.28v50.17600001h-450.048z" p-id="2834"></path><path d="M692.224 154.85866666v-0.512c-2.56 1.024-5.12 2.048-8.192 2.048 7.168 8.192 8.704 20.992 3.584 30.72 2.56 5.12 3.584 11.776 2.56 17.40800001 0.512 0.512 1.536 0.512 2.048 1.02399999v-0.512h164.864v719.87200001h-690.176V204.52266667h164.864c2.048-1.024 4.608-1.536 7.68-2.04800001l1.536-4.608c6.144-18.944 6.144-29.696-2.56-42.49599999-2.048-0.512-4.608-1.024-6.144-2.04800001v0.51200001h-215.04v820.224h790.016v-819.20000001h-215.04z" p-id="2835"></path><path d="M287.232 393.96266666H737.28v50.17600001h-450.048zM699.904 129.25866667c0-26.112-20.992-47.104-47.104-47.10400001H604.16c-17.408-34.304-52.736-56.832-92.16-56.832s-75.264 22.528-92.16 56.832h-48.64c-26.112 0-47.104 20.992-47.104 47.10400001v122.36799999h374.784l1.024-122.36799999z m-37.888 88.57599999h-300.544v-84.992c0-5.12 4.608-9.728 9.728-9.72799999h74.752l4.608-12.80000001c8.704-26.112 33.792-44.032 61.952-44.03199999s52.736 17.92 61.952 44.03199999l4.608 12.80000001h74.752c5.12 0 9.728 4.608 9.728 9.72799999v84.992z" p-id="2836"></path></svg>