<?xml version="1.0" standalone="no"?><!DOCTYPE svg PUBLIC "-//W3C//DTD SVG 1.1//EN"
    "http://www.w3.org/Graphics/SVG/1.1/DTD/svg11.dtd">
<svg t="1559481032480" class="icon" style="" viewBox="0 0 1024 1024" version="1.1" xmlns="http://www.w3.org/2000/svg"
     p-id="3073"
     width="200" height="200">
  <defs>
    <style type="text/css"></style>
  </defs>
  <path
      d="M810.9 437.5c-81.9 0-148.9 67-148.9 148.9V646l-149.8 86.6L363.3 646v-59.6c0-81.9-67-148.9-148.9-148.9s-148.9 67-148.9 148.9v335.1c0 20.5 16.8 37.2 37.2 37.2H326c20.5 0 37.2-16.8 37.2-37.2V732.6L491.7 807c0.9 0 0.9 0.9 1.9 0.9 11.2 6.5 25.1 7.4 37.2 0L662 731.7v189.9c0 20.5 16.8 37.2 37.2 37.2h223.4c20.5 0 37.2-16.8 37.2-37.2V586.5c0.1-81.9-66.9-149-148.9-149z m0-74.4c81.9 0 148.9-67 148.9-148.9s-67-148.9-148.9-148.9S662 132.3 662 214.2s66.1 148.9 148.9 148.9zM64.5 214.2c0-81.9 67-148.9 148.9-148.9s148.9 67 148.9 148.9-67 148.9-148.9 148.9-148.9-67-148.9-148.9z"
      p-id="3074"></path>
</svg>
