<?xml version="1.0" standalone="no"?><!DOCTYPE svg PUBLIC "-//W3C//DTD SVG 1.1//EN" "http://www.w3.org/Graphics/SVG/1.1/DTD/svg11.dtd"><svg t="1559286584580" class="icon" style="" viewBox="0 0 1024 1024" version="1.1" xmlns="http://www.w3.org/2000/svg" p-id="2238" xmlns:xlink="http://www.w3.org/1999/xlink" width="32" height="32"><defs><style type="text/css"></style></defs><path d="M536.486957 51.2 4.452174 51.2C2.226087 51.2 0 53.426087 0 57.878261l0 910.469565c0 2.226087 2.226087 4.452174 4.452174 4.452174l182.53913 0 0-175.86087 166.956522 0 0 175.86087 182.53913 0c2.226087 0 4.452174-2.226087 4.452174-4.452174L540.93913 57.878261C540.93913 53.426087 538.713043 51.2 536.486957 51.2L536.486957 51.2zM231.513043 663.373913 102.4 663.373913l0-126.886957 129.113043 0L231.513043 663.373913 231.513043 663.373913zM231.513043 474.156522 102.4 474.156522l0-126.886957 129.113043 0L231.513043 474.156522 231.513043 474.156522zM231.513043 284.93913 102.4 284.93913 102.4 158.052174l129.113043 0L231.513043 284.93913 231.513043 284.93913zM436.313043 663.373913l-129.113043 0 0-126.886957 129.113043 0L436.313043 663.373913 436.313043 663.373913zM436.313043 474.156522l-129.113043 0 0-126.886957 129.113043 0L436.313043 474.156522 436.313043 474.156522zM436.313043 284.93913l-129.113043 0L307.2 158.052174l129.113043 0L436.313043 284.93913 436.313043 284.93913zM997.286957 347.269565 647.791304 347.269565c-15.582609 0-26.713043 11.130435-26.713043 26.713043l0 594.365217c0 2.226087 2.226087 2.226087 2.226087 2.226087l140.243478 0 0-115.756522 117.982609 0 0 115.756522 138.017391 0c2.226087 0 2.226087-2.226087 2.226087-2.226087L1021.773913 373.982609C1024 360.626087 1010.643478 347.269565 997.286957 347.269565L997.286957 347.269565zM968.347826 756.869565 672.278261 756.869565l0-62.330435 296.069565 0L968.347826 756.869565 968.347826 756.869565zM968.347826 632.208696 672.278261 632.208696l0-62.330435 296.069565 0L968.347826 632.208696 968.347826 632.208696zM968.347826 505.321739 672.278261 505.321739l0-62.330435 296.069565 0L968.347826 505.321739 968.347826 505.321739zM968.347826 505.321739" p-id="2239"></path></svg>