<svg xmlns="http://www.w3.org/2000/svg" xmlns:xlink="http://www.w3.org/1999/xlink" viewBox="0 0 24 24" id="sort-by-duedate">
  <path id="sort-by-duedate_Stroke-1" d="M5.2,17.4l-1.8-1.5c-0.3-0.3-0.8-0.2-1.1,0.1S2.2,16.7,2.5,17l3,2.6C6,20,6.8,19.6,6.8,19V5  c0-0.4-0.3-0.8-0.8-0.8S5.2,4.6,5.2,5V17.4z"></path>
  <path id="sort-by-duedate_Combined-Shape" d="M15.5,12V8.8c0-0.4-0.3-0.8-0.8-0.8S14,8.3,14,8.8V12v1.5h3.2c0.4,0,0.8-0.3,0.8-0.8S17.7,12,17.2,12  H15.5z M21,12c0,3.3-2.7,6-6,6s-6-2.7-6-6s2.7-6,6-6S21,8.7,21,12z"></path>
</svg>
