<?xml version="1.0" standalone="no"?><!DOCTYPE svg PUBLIC "-//W3C//DTD SVG 1.1//EN" "http://www.w3.org/Graphics/SVG/1.1/DTD/svg11.dtd"><svg t="1558948873514" class="icon" style="" viewBox="0 0 1024 1024" version="1.1" xmlns="http://www.w3.org/2000/svg" p-id="7760" xmlns:xlink="http://www.w3.org/1999/xlink" width="32" height="32"><defs><style type="text/css"></style></defs><path d="M452.124819 298.315246c-9.634428 23.261797-14.633279 48.417733-14.633279 73.590042 0 25.155936 4.998851 50.341548 14.633279 73.589019 9.626241 23.24747 23.873734 44.584428 41.662889 62.365396 17.833157 17.825994 39.141462 32.0653 62.396095 41.714054 23.26896 9.605775 48.424896 14.604626 73.581856 14.604626 25.171286 0 50.348712-4.999874 73.596182-14.604626 23.254633-9.648754 44.584428-23.88806 62.396095-41.714054 17.766642-17.780969 32.04995-39.118949 41.648562-62.365396 9.633405-23.24747 14.626115-48.433082 14.626115-73.589019 0-25.172309-4.992711-50.328245-14.626115-73.590042-9.598612-23.260773-23.88192-44.570101-41.648562-62.352093-17.810644-17.810644-39.141462-32.0653-62.396095-41.698704-23.24747-9.619078-48.424896-14.618952-73.596182-14.618952-25.15696 0-50.312896 4.999874-73.581856 14.618952-23.254633 9.633405-44.562938 23.88806-62.396095 41.698704C475.998553 253.745145 461.751061 275.05345 452.124819 298.315246z" p-id="7761"></path><path d="M795.643594 640.97342 463.872375 640.97342c-88.149643 0-160.295799 72.132854-160.295799 160.311149s72.146157 160.325475 160.295799 160.325475l331.772242 0c88.171132 0 160.296823-72.14718 160.296823-160.325475S883.815749 640.97342 795.643594 640.97342z" p-id="7762"></path><path d="M255.435135 808.776194l-63.947428 0c-55.712883 0-101.041254-45.320185-101.041254-101.033068L90.446453 185.825242c0-55.712883 45.328371-101.033068 101.041254-101.033068 6.179746 0 11.192923-5.0142 11.192923-11.193947s-5.013177-11.192923-11.192923-11.192923c-68.059072 0-123.429147 55.363935-123.429147 123.420961l0 521.91686c0 68.058049 55.370075 123.420961 123.429147 123.420961l63.947428 0c6.179746 0 11.192923-5.013177 11.192923-11.192923S261.614881 808.776194 255.435135 808.776194z" p-id="7763"></path><path d="M713.411731 84.776825c55.711859 0 101.040231 45.321208 101.040231 101.034091l0 37.108153c0 6.179746 5.0142 11.192923 11.193947 11.192923s11.192923-5.013177 11.192923-11.192923l0-37.108153c0-68.059072-55.370075-123.420961-123.428124-123.420961-6.179746 0-11.193947 5.013177-11.193947 11.192923S707.231985 84.776825 713.411731 84.776825z" p-id="7764"></path><path d="M275.673062 84.776825l68.765153 0c6.179746 0 11.192923-5.013177 11.192923-11.192923s-5.013177-11.192923-11.192923-11.192923l-68.765153 0c-6.179746 0-11.192923 5.013177-11.192923 11.192923S269.492292 84.776825 275.673062 84.776825z" p-id="7765"></path><path d="M422.064176 84.776825l68.786643 0c6.179746 0 11.192923-5.013177 11.192923-11.192923s-5.013177-11.192923-11.192923-11.192923l-68.786643 0c-6.179746 0-11.193947 5.013177-11.193947 11.192923S415.88443 84.776825 422.064176 84.776825z" p-id="7766"></path><path d="M568.455291 84.776825l68.787666 0c6.179746 0 11.192923-5.013177 11.192923-11.192923s-5.013177-11.192923-11.192923-11.192923l-68.787666 0c-6.179746 0-11.192923 5.013177-11.192923 11.192923S562.275545 84.776825 568.455291 84.776825z" p-id="7767"></path><path d="M253.22684 251.733325l168.837336 0c6.179746 0 11.192923-5.013177 11.192923-11.192923s-5.013177-11.192923-11.192923-11.192923L253.22684 229.347478c-6.179746 0-11.192923 5.013177-11.192923 11.192923S247.047094 251.733325 253.22684 251.733325z" p-id="7768"></path><path d="M253.22684 327.625806l69.210291 0c6.179746 0 11.192923-5.0142 11.192923-11.193947s-5.013177-11.192923-11.192923-11.192923l-69.210291 0c-6.179746 0-11.192923 5.013177-11.192923 11.192923S247.047094 327.625806 253.22684 327.625806z" p-id="7769"></path></svg>