<?xml version="1.0" standalone="no"?><!DOCTYPE svg PUBLIC "-//W3C//DTD SVG 1.1//EN" "http://www.w3.org/Graphics/SVG/1.1/DTD/svg11.dtd"><svg t="1567326675574" class="icon" viewBox="0 0 1024 1024" version="1.1" xmlns="http://www.w3.org/2000/svg" p-id="5208" xmlns:xlink="http://www.w3.org/1999/xlink" width="200" height="200"><defs><style type="text/css"></style></defs><path d="M947.746 527.835c-0.844 1.052-48.273 62.988-125.76 125.672-77.454 62.387-185.546 126.945-309.985 127.266-124.442-0.322-232.53-64.88-309.987-127.266-77.486-62.682-124.916-124.619-125.76-125.672L64 511.836l12.254-15.976c0.844-1.053 48.274-62.989 125.76-125.675 77.456-62.382 185.73-126.635 310.172-126.958 124.44 0.323 232.345 64.576 309.799 126.958 77.486 62.684 124.915 124.621 125.76 125.675L960 511.836l-12.254 15.999zM512.187 355.464c-86.531 0-156.68 70.106-156.68 156.586 0 86.482 70.149 156.591 156.68 156.591 86.532 0 156.679-70.109 156.679-156.591 0-86.48-70.147-156.586-156.679-156.586z m0 268.822c-61.861 0-112.009-50.25-112.009-112.236 0-61.983 50.148-112.233 112.009-112.233 61.862 0 112.01 50.25 112.01 112.233 0 61.986-50.15 112.236-112.01 112.236z" fill="" p-id="5209"></path></svg>